# xmcd CD database file
#
# Track frame offsets:
#	150
#	12060
#	37365
#	65250
#	92707
#	110885
#	138637
#	162820
#	194500
#	223860
#
# Disc length: 3546 seconds
#
# Revision: 2
# Processed by: cddbd v1.5.1PL0 Copyright (c) Steve Scherf et al.
# Submitted via: CDex 1.51
#
DISCID=960dd80a
DTITLE=Sugar Blue - Blue Blazes
DYEAR=1994
DGENRE=Blues
TTITLE0=I Ain't Got You
TTITLE1=Help Me
TTITLE2=Miss You
TTITLE3=I Just Got To Know
TTITLE4=One More Mile To Go
TTITLE5=That's All Right
TTITLE6=Country Blues
TTITLE7=Back Door Man
TTITLE8=Just To Be With You
TTITLE9=Out Till Dawn
EXTD=YEAR: 1994
EXTT0=
EXTT1=
EXTT2=
EXTT3=
EXTT4=
EXTT5=
EXTT6=
EXTT7=
EXTT8=
EXTT9=
PLAYORDER=
